<?xml version="1.0" encoding="utf-8"?>
<!-- Generator: Adobe Illustrator 21.1.0, SVG Export Plug-In . SVG Version: 6.00 Build 0)  -->
<svg version="1.1" id="Layer_1" xmlns="http://www.w3.org/2000/svg" xmlns:xlink="http://www.w3.org/1999/xlink" x="0px" y="0px"
	 viewBox="0 0 200 200" style="enable-background:new 0 0 200 200;" xml:space="preserve">
<style type="text/css">
	.st0{opacity:0.17;fill:#8DD6FF;stroke:#007ACC;stroke-miterlimit:10;enable-background:new    ;}
	.st1{opacity:0.2;fill:#8FAAFF;stroke:#007ACC;stroke-miterlimit:10;enable-background:new    ;}
	.st2{fill:none;stroke:url(#SVGID_1_);stroke-width:3;stroke-linecap:round;stroke-linejoin:round;}
	.st3{fill:none;stroke:url(#SVGID_2_);stroke-width:3;stroke-linecap:round;stroke-linejoin:round;}
	.st4{fill:none;stroke:url(#SVGID_3_);stroke-width:3;stroke-linecap:round;stroke-linejoin:round;}
	.st5{fill:none;stroke:url(#SVGID_4_);stroke-width:3;stroke-linecap:round;stroke-linejoin:round;}
	.st6{fill:none;stroke:url(#SVGID_5_);stroke-width:3;stroke-linecap:round;stroke-linejoin:round;}
	.st7{fill:none;stroke:url(#SVGID_6_);stroke-width:3;stroke-linecap:round;stroke-linejoin:round;}
	.st8{display:none;opacity:0.14;fill:#C5FFF9;enable-background:new    ;}
	.st9{display:none;fill:#FFFFFF;}
	.st10{fill:#FFFFFF;}
	.st11{font-family:'Square721BT-RomanCondensed';}
	.st12{font-size:19.24px;}
	.st13{letter-spacing:1;}
</style>
<title>sponsors</title>
<g id="Layer_2">
	<polygon class="st0" points="174.3,10 100.3,10 26.3,10 9.8,26.5 9.8,78 9.8,129.5 26.3,146 100.3,146 174.3,146 190.8,129.5 
		190.8,78 190.8,26.5 	"/>
	<polygon class="st1" points="172.3,151 99.3,151 26.3,151 9.3,168 9.3,170.5 9.3,173 26.3,190 99.3,190 172.3,190 189.3,173 
		189.3,170.5 189.3,168 	"/>
	
		<linearGradient id="SVGID_1_" gradientUnits="userSpaceOnUse" x1="56.7" y1="154.2" x2="122.7795" y2="154.2" gradientTransform="matrix(1 0 0 1 0 -54)">
		<stop  offset="0" style="stop-color:#80CFFF"/>
		<stop  offset="1" style="stop-color:#83FFDE"/>
	</linearGradient>
	<path class="st2" d="M58.2,79.7l4.1,4.1c0.6,0.6,1,1.4,1.2,2.3c0.9,5,3.1,9.7,6.3,13.7l18.5,18.5c1.5,1.6,4.1,1.6,5.7,0.1l0.1-0.1
		l0,0c1.6-1.6,1.6-4.2,0-5.7l-7.2-7.2l14.2,14.1c1.6,1.6,4.3,1.6,5.9,0l0,0l0.3-0.3c1.6-1.6,1.6-4.3,0-5.9l0,0l-13.1-13.1l15.3,15.3
		c1.6,1.6,4.3,1.6,5.9,0l0,0l0.1-0.1c1.6-1.6,1.6-4.3,0-5.9l0,0l-16-16l14.8,14.8c1.6,1.6,4.3,1.6,5.9,0l0,0l0,0
		c1.6-1.6,1.6-4.3,0-5.9l0,0l-19.6-19.6"/>
	
		<linearGradient id="SVGID_2_" gradientUnits="userSpaceOnUse" x1="78.38" y1="117.5054" x2="91.08" y2="117.5054" gradientTransform="matrix(1 0 0 1 0 -54)">
		<stop  offset="0" style="stop-color:#80CFFF"/>
		<stop  offset="1" style="stop-color:#83FFDE"/>
	</linearGradient>
	<path class="st3" d="M79.9,60.1l5.1,5.1c1.2,1.2,2.9,1.8,4.6,1.7"/>
	
		<linearGradient id="SVGID_3_" gradientUnits="userSpaceOnUse" x1="-1135.2405" y1="2263.4072" x2="-1095.4705" y2="2263.4072" gradientTransform="matrix(0 -1 1 0 -2200.7432 -1050.8107)">
		<stop  offset="0" style="stop-color:#80CFFF"/>
		<stop  offset="1" style="stop-color:#83FFDE"/>
	</linearGradient>
	
		<rect x="44.2" y="57.4" transform="matrix(0.7071 -0.7071 0.7071 0.7071 -27.3156 63.1909)" class="st4" width="36.8" height="14.3"/>
	
		<linearGradient id="SVGID_4_" gradientUnits="userSpaceOnUse" x1="84.325" y1="129.236" x2="123.7" y2="129.236" gradientTransform="matrix(1 0 0 1 0 -54)">
		<stop  offset="0" style="stop-color:#80CFFF"/>
		<stop  offset="1" style="stop-color:#83FFDE"/>
	</linearGradient>
	<path class="st5" d="M122.2,61.7c-1.2,1.2-4.1,6.2-12.1,2.8c-7.5-3.2-13.8,3.6-14.6,4.5l-0.2,0.2l-7.9,7.9c-2.1,2.1-2.1,5.5,0,7.6
		l0,0c2.1,2.1,5.5,2.1,7.6,0l0,0l7.2-7.2l0,0c-1.8,1.8-1.8,4.6,0,6.4l0.1,0.1c2.9,2.7,7.5,5.7,12.9,4.5"/>
	
		<linearGradient id="SVGID_5_" gradientUnits="userSpaceOnUse" x1="122.95" y1="144.15" x2="141.82" y2="144.15" gradientTransform="matrix(1 0 0 1 0 -54)">
		<stop  offset="0" style="stop-color:#80CFFF"/>
		<stop  offset="1" style="stop-color:#83FFDE"/>
	</linearGradient>
	<path class="st6" d="M140.3,78.7c0,0-7,6.1-7.4,9.2s-2.7,8.1-4.9,10.2l-3.5,3.5"/>
	
		<linearGradient id="SVGID_6_" gradientUnits="userSpaceOnUse" x1="-5656.6943" y1="-2258.0146" x2="-5616.9243" y2="-2258.0146" gradientTransform="matrix(-1 0 0 1 -5499.8906 2322.5642)">
		<stop  offset="0" style="stop-color:#80CFFF"/>
		<stop  offset="1" style="stop-color:#83FFDE"/>
	</linearGradient>
	
		<rect x="129.7" y="46.2" transform="matrix(0.7071 -0.7071 0.7071 0.7071 -5.5782 115.7193)" class="st7" width="14.3" height="36.8"/>
	
		<rect x="44.2" y="57.4" transform="matrix(0.7071 -0.7071 0.7071 0.7071 -27.3156 63.1909)" class="st8" width="36.8" height="14.3"/>
	
		<rect x="129.7" y="46.2" transform="matrix(0.7071 -0.7071 0.7071 0.7071 -5.5782 115.7193)" class="st8" width="14.3" height="36.8"/>
	<path class="st9" d="M37.2,174.7c0,0.5-0.1,1-0.3,1.4s-0.5,0.8-0.8,1.2c-0.3,0.3-0.8,0.6-1.2,0.8c-0.5,0.2-1,0.3-1.5,0.3h-1.1
		c-0.5,0-1-0.1-1.5-0.3s-0.9-0.5-1.2-0.8c-0.3-0.3-0.6-0.7-0.8-1.2c-0.2-0.5-0.3-0.9-0.3-1.4v-0.6l1.4-0.2v0.8
		c0,0.3,0.1,0.6,0.2,0.9c0.1,0.3,0.3,0.6,0.5,0.8s0.5,0.4,0.8,0.5s0.7,0.2,1,0.2h1c0.3,0,0.7-0.1,1-0.2c0.3-0.1,0.6-0.3,0.8-0.5
		s0.4-0.5,0.5-0.8s0.2-0.6,0.2-0.9v-0.4c0-0.5-0.1-0.9-0.3-1.3c-0.2-0.3-0.5-0.7-0.8-0.9c-0.4-0.3-0.7-0.5-1.2-0.6l-1.4-0.5
		c-0.5-0.2-0.9-0.4-1.3-0.6c-0.4-0.2-0.8-0.5-1.1-0.8c-0.4-0.3-0.6-0.7-0.8-1.2c-0.2-0.5-0.3-1.1-0.3-1.6v-0.3c0-0.5,0.1-1,0.3-1.4
		c0.4-0.9,1.1-1.6,2-2c0.5-0.2,1-0.3,1.5-0.3h1c0.5,0,1,0.1,1.4,0.3c0.9,0.4,1.6,1.1,2,2c0.2,0.5,0.3,0.9,0.3,1.4v0.4l-1.4,0.2v-0.6
		c0-0.3-0.1-0.6-0.2-0.9c-0.1-0.3-0.3-0.5-0.5-0.8c-0.2-0.2-0.5-0.4-0.8-0.5s-0.7-0.2-1-0.2h-0.8c-1.3,0-2.4,1.1-2.4,2.4l0,0v0.3
		c0,0.4,0.1,0.9,0.3,1.2c0.2,0.3,0.5,0.6,0.8,0.9c0.4,0.2,0.7,0.5,1.2,0.6c0.4,0.2,0.9,0.4,1.3,0.5s0.9,0.4,1.3,0.6
		c0.4,0.2,0.8,0.5,1.2,0.8c0.3,0.3,0.6,0.7,0.8,1.1c0.2,0.5,0.3,1.1,0.3,1.6L37.2,174.7z"/>
	<path class="st9" d="M48.4,170.1c-0.2,0.4-0.5,0.8-0.8,1.2c-0.7,0.7-1.6,1.1-2.6,1.1h-3.4v5.8h-1.4v-15.1H45c1.5,0,2.8,0.9,3.4,2.3
		c0.2,0.5,0.3,1,0.3,1.4v1.9C48.7,169.2,48.6,169.7,48.4,170.1z M47.3,166.8c0-0.3-0.1-0.6-0.2-0.9c-0.1-0.3-0.3-0.5-0.5-0.8
		c-0.2-0.2-0.5-0.4-0.8-0.5s-0.7-0.2-1-0.2h-3.3v6.7h3.4c0.3,0,0.7-0.1,1-0.2c0.3-0.1,0.5-0.3,0.8-0.5c0.2-0.2,0.4-0.5,0.5-0.8
		s0.2-0.6,0.2-0.9L47.3,166.8z"/>
	<path class="st9" d="M59.3,176.2c-0.2,0.4-0.5,0.8-0.8,1.2c-0.3,0.3-0.7,0.6-1.2,0.8s-0.9,0.3-1.4,0.3h-1.1c-0.5,0-1-0.1-1.4-0.3
		s-0.8-0.5-1.2-0.8c-0.3-0.3-0.6-0.7-0.8-1.2s-0.3-1-0.3-1.4v-8.1c0-0.5,0.1-1,0.3-1.4c0.4-0.9,1.1-1.6,2-2c0.5-0.2,1-0.3,1.4-0.3
		h1.1c0.5,0,1,0.1,1.4,0.3c0.9,0.4,1.6,1.1,2,2c0.2,0.5,0.3,0.9,0.3,1.4v8.1C59.6,175.2,59.5,175.7,59.3,176.2z M58.2,166.6
		c0-0.3-0.1-0.6-0.2-0.9c-0.1-0.3-0.3-0.5-0.5-0.8c-0.2-0.2-0.5-0.4-0.8-0.5s-0.6-0.2-0.9-0.2h-1c-0.3,0-0.6,0.1-0.9,0.2
		c-0.3,0.1-0.5,0.3-0.8,0.5c-0.2,0.2-0.4,0.5-0.5,0.8s-0.2,0.6-0.2,0.9v8.1c0,0.6,0.3,1.3,0.7,1.7c0.2,0.2,0.5,0.4,0.8,0.5
		s0.6,0.2,0.9,0.2h1c0.3,0,0.6-0.1,0.9-0.2c0.6-0.3,1-0.7,1.3-1.3c0.1-0.3,0.2-0.6,0.2-0.9V166.6z"/>
	<path class="st9" d="M70.6,178.2l-6.3-11l-0.1-0.6v11.7h-1.4v-15.2h0.7l6.3,11l0.1,0.6v-11.6h1.4v15.1H70.6z"/>
	<path class="st9" d="M83.1,174.7c0,0.5-0.1,1-0.3,1.4c-0.2,0.4-0.5,0.8-0.8,1.2c-0.4,0.3-0.8,0.6-1.2,0.8c-0.5,0.2-1,0.3-1.5,0.3
		h-1.1c-0.5,0-1-0.1-1.5-0.3s-0.9-0.5-1.2-0.8c-0.3-0.3-0.6-0.7-0.8-1.2c-0.2-0.5-0.3-1-0.3-1.4v-0.6l1.4-0.2v0.8
		c0,0.3,0.1,0.6,0.2,0.9c0.1,0.3,0.3,0.6,0.6,0.8c0.2,0.2,0.5,0.4,0.8,0.5s0.7,0.2,1,0.2h1c0.3,0,0.7-0.1,1-0.2
		c0.3-0.1,0.6-0.3,0.8-0.5c0.2-0.2,0.4-0.5,0.6-0.8c0.1-0.3,0.2-0.6,0.2-0.9v-0.4c0-0.5-0.1-0.9-0.3-1.3c-0.2-0.3-0.5-0.7-0.8-0.9
		c-0.4-0.3-0.7-0.5-1.2-0.6l-1.3-0.5c-0.4-0.2-0.9-0.4-1.3-0.6c-0.4-0.2-0.8-0.5-1.2-0.8c-0.3-0.3-0.6-0.7-0.8-1.1
		c-0.2-0.5-0.3-1.1-0.3-1.6v-0.3c0-0.5,0.1-1,0.3-1.4c0.2-0.4,0.5-0.8,0.8-1.2c0.3-0.3,0.7-0.6,1.2-0.8s1-0.3,1.4-0.3h1
		c0.5,0,1,0.1,1.4,0.3s0.8,0.5,1.2,0.8c0.3,0.3,0.6,0.7,0.8,1.2c0.2,0.5,0.3,0.9,0.3,1.4v0.4l-1.4,0.2v-0.6c0-0.3-0.1-0.6-0.2-0.9
		c-0.1-0.3-0.3-0.5-0.5-0.8c-0.2-0.2-0.5-0.4-0.8-0.5s-0.6-0.2-0.9-0.2h-0.8c-0.3,0-0.6,0.1-0.9,0.2c-0.3,0.1-0.5,0.3-0.8,0.5
		c-0.2,0.2-0.4,0.5-0.5,0.8s-0.2,0.6-0.2,0.9v0.3c0,0.4,0.1,0.8,0.3,1.2c0.2,0.3,0.5,0.6,0.8,0.9c0.4,0.2,0.7,0.5,1.2,0.6
		c0.4,0.2,0.9,0.4,1.3,0.5s0.9,0.4,1.3,0.6c0.4,0.2,0.8,0.5,1.1,0.8c0.3,0.3,0.6,0.7,0.8,1.1c0.2,0.5,0.3,1.1,0.3,1.6L83.1,174.7z"
		/>
	<path class="st9" d="M94,176.2c-0.2,0.4-0.5,0.8-0.8,1.2c-0.3,0.3-0.7,0.6-1.2,0.8s-0.9,0.3-1.4,0.3h-1.1c-0.5,0-1-0.1-1.4-0.3
		s-0.9-0.4-1.2-0.8c-0.3-0.3-0.6-0.7-0.8-1.2c-0.2-0.5-0.3-1-0.3-1.4v-8.1c0-0.5,0.1-1,0.3-1.4c0.2-0.4,0.5-0.8,0.8-1.2
		c0.3-0.3,0.7-0.6,1.2-0.8s1-0.3,1.4-0.3h1.1c0.5,0,1,0.1,1.4,0.3c0.9,0.4,1.6,1.1,2,2c0.2,0.5,0.3,0.9,0.3,1.4v8.1
		C94.3,175.2,94.2,175.7,94,176.2z M92.9,166.6c0-0.3-0.1-0.6-0.2-0.9c-0.1-0.3-0.3-0.5-0.5-0.8c-0.2-0.2-0.5-0.4-0.8-0.5
		s-0.6-0.2-0.9-0.2h-1c-0.3,0-0.6,0.1-0.9,0.2c-0.3,0.1-0.5,0.3-0.8,0.5c-0.2,0.2-0.4,0.5-0.5,0.8s-0.2,0.6-0.2,0.9v8.1
		c0,0.3,0.1,0.6,0.2,0.9c0.1,0.3,0.3,0.5,0.5,0.8c0.2,0.2,0.5,0.4,0.8,0.5s0.6,0.2,0.9,0.2h1c0.3,0,0.6-0.1,0.9-0.2
		c0.3-0.1,0.5-0.3,0.8-0.5c0.2-0.2,0.4-0.5,0.5-0.8s0.2-0.6,0.2-0.9V166.6z"/>
	<path class="st9" d="M104.7,178.2l-4.1-6.5h-1.9v6.5h-1.4v-15.1h4.8c0.5,0,1,0.1,1.4,0.3s0.8,0.5,1.2,0.8c0.3,0.3,0.6,0.7,0.8,1.2
		c0.2,0.5,0.3,1,0.3,1.4v1.2c0,1-0.4,1.9-1.1,2.6c-0.3,0.3-0.7,0.6-1.2,0.8s-1,0.3-1.4,0.3l4.1,6.5H104.7z M104.5,166.8
		c0-0.3-0.1-0.6-0.2-0.9c-0.1-0.3-0.3-0.5-0.5-0.8c-0.5-0.5-1.1-0.7-1.7-0.7h-3.4v6.1h3.4c0.3,0,0.6-0.1,0.9-0.2
		c0.3-0.1,0.6-0.3,0.8-0.5c0.2-0.2,0.4-0.5,0.5-0.8s0.2-0.6,0.2-0.9C104.5,168.1,104.5,166.8,104.5,166.8z"/>
	<path class="st9" d="M117.1,174.7c0,0.5-0.1,1-0.3,1.4c-0.2,0.4-0.5,0.8-0.8,1.2c-0.4,0.3-0.8,0.6-1.2,0.8c-0.5,0.2-1,0.3-1.5,0.3
		h-1.1c-0.5,0-1-0.1-1.5-0.3s-0.9-0.5-1.2-0.8c-0.3-0.3-0.6-0.7-0.8-1.2c-0.2-0.5-0.3-1-0.3-1.4v-0.6l1.4-0.2v0.8
		c0,0.3,0.1,0.6,0.2,0.9c0.1,0.3,0.3,0.6,0.6,0.8c0.2,0.2,0.5,0.4,0.8,0.5s0.7,0.2,1,0.2h1c0.3,0,0.7-0.1,1-0.2
		c0.6-0.3,1.1-0.7,1.4-1.3c0.1-0.3,0.2-0.6,0.2-0.9v-0.4c0-0.5-0.1-0.9-0.3-1.3c-0.2-0.3-0.5-0.7-0.8-0.9c-0.4-0.3-0.7-0.5-1.1-0.6
		l-1.3-0.5c-0.4-0.2-0.9-0.4-1.3-0.6c-0.4-0.2-0.8-0.5-1.1-0.8c-0.3-0.3-0.6-0.7-0.8-1.1c-0.2-0.5-0.3-1.1-0.3-1.6v-0.3
		c0-0.5,0.1-1,0.3-1.4c0.2-0.4,0.5-0.8,0.8-1.2c0.3-0.3,0.7-0.6,1.2-0.8s1-0.3,1.4-0.3h1c0.5,0,1,0.1,1.4,0.3s0.8,0.5,1.2,0.8
		c0.3,0.3,0.6,0.7,0.8,1.2c0.2,0.5,0.3,0.9,0.3,1.4v0.4l-1.4,0.2v-0.6c0-0.3-0.1-0.6-0.2-0.9c-0.1-0.3-0.3-0.5-0.5-0.8
		c-0.5-0.5-1.1-0.7-1.7-0.7h-0.9c-0.3,0-0.6,0.1-0.9,0.2c-0.3,0.1-0.5,0.3-0.8,0.5c-0.2,0.2-0.4,0.5-0.5,0.8s-0.2,0.6-0.2,0.9v0.3
		c0,0.4,0.1,0.8,0.3,1.2c0.2,0.3,0.5,0.6,0.8,0.9c0.4,0.3,0.7,0.5,1.1,0.6l1.3,0.5c0.4,0.2,0.9,0.4,1.3,0.6c0.4,0.2,0.8,0.5,1.1,0.8
		c0.3,0.3,0.6,0.7,0.8,1.1c0.2,0.5,0.3,1.1,0.3,1.6L117.1,174.7z"/>
</g>
<text transform="matrix(1 0 0 1 26.6191 178.084)" class="st10 st11 st12 st13">CONTACT US</text>
</svg>
