<?xml version="1.0" encoding="utf-8"?>
<!-- Generator: Adobe Illustrator 21.1.0, SVG Export Plug-In . SVG Version: 6.00 Build 0)  -->
<svg version="1.1" id="Layer_1" xmlns="http://www.w3.org/2000/svg" xmlns:xlink="http://www.w3.org/1999/xlink" x="0px" y="0px"
	 viewBox="0 0 200 200" style="enable-background:new 0 0 200 200;" xml:space="preserve">
<style type="text/css">
	.st0{opacity:0.17;fill:#8DD6FF;stroke:#007ACC;stroke-miterlimit:10;enable-background:new    ;}
	.st1{opacity:0.2;fill:#8FAAFF;stroke:#007ACC;stroke-miterlimit:10;enable-background:new    ;}
	.st2{display:none;fill:#FFFFFF;}
	.st3{display:none;fill:none;stroke:url(#SVGID_1_);stroke-width:3;stroke-linecap:round;stroke-linejoin:round;}
	.st4{display:none;opacity:0.16;fill:#FFFFFF;enable-background:new    ;}
	.st5{display:none;fill:none;stroke:url(#SVGID_2_);stroke-width:3;stroke-linecap:round;stroke-linejoin:round;}
	.st6{fill:#FFFFFF;}
	.st7{font-family:'Square721BT-RomanCondensed';}
	.st8{font-size:19.2412px;}
	.st9{clip-path:url(#SVGID_4_);}
	.st10{fill:url(#SVGID_5_);}
	.st11{fill:url(#SVGID_6_);}
	.st12{fill:url(#SVGID_7_);}
	.st13{fill:url(#SVGID_8_);}
	.st14{fill:url(#SVGID_9_);}
	.st15{fill:url(#SVGID_10_);}
	.st16{fill:url(#SVGID_11_);}
	.st17{fill:url(#SVGID_12_);}
	.st18{fill:url(#SVGID_13_);}
	.st19{fill:url(#SVGID_14_);}
</style>
<title>workshops_1</title>
<g id="Layer_2">
	<polygon class="st0" points="174.3,10 100.3,10 26.3,10 9.8,26.5 9.8,78 9.8,129.5 26.3,146 100.3,146 174.3,146 190.8,129.5 
		190.8,78 190.8,26.5 	"/>
	<polygon class="st1" points="172.3,151 99.3,151 26.3,151 9.3,168 9.3,170.5 9.3,173 26.3,190 99.3,190 172.3,190 189.3,173 
		189.3,170.5 189.3,168 	"/>
	<path class="st2" d="M39.9,178.2h-0.7l-2.9-11.4v-0.6l-0.1,0.6l-3,11.4h-0.7l-4-15.1h1.4l3,11.5v0.6v-0.6l2.9-11.5h0.8l2.9,11.5
		v0.6v-0.6l3-11.5h1.4L39.9,178.2z"/>
	<path class="st2" d="M54.1,176.2c-0.4,0.9-1.1,1.6-2,2c-0.5,0.2-1,0.3-1.4,0.3h-1.1c-1,0-1.9-0.4-2.6-1.1c-0.3-0.3-0.6-0.7-0.8-1.2
		s-0.3-1-0.3-1.4v-8.1c0-0.5,0.1-1,0.3-1.4c0.4-0.9,1.1-1.6,2-2c0.5-0.2,1-0.3,1.5-0.3h1.1c0.5,0,1,0.1,1.4,0.3s0.8,0.5,1.2,0.8
		c0.3,0.3,0.6,0.7,0.8,1.2s0.3,0.9,0.3,1.4v8.1C54.4,175.2,54.2,175.7,54.1,176.2z M53,166.6c0-0.3-0.1-0.6-0.2-0.9
		c-0.1-0.3-0.3-0.5-0.5-0.8c-0.5-0.5-1.1-0.7-1.7-0.7h-1c-0.6,0-1.3,0.2-1.7,0.7c-0.2,0.2-0.4,0.5-0.5,0.8s-0.2,0.6-0.2,0.9v8.1
		c0,0.3,0.1,0.6,0.2,0.9c0.1,0.3,0.3,0.6,0.5,0.8c0.4,0.5,1.1,0.7,1.7,0.7h1c0.6,0,1.3-0.3,1.7-0.7c0.2-0.2,0.4-0.5,0.5-0.8
		s0.2-0.6,0.2-0.9V166.6z"/>
	<path class="st2" d="M64.7,178.2l-4.1-6.5h-1.9v6.5h-1.4v-15.1h4.8c0.5,0,1,0.1,1.4,0.3s0.8,0.5,1.2,0.8c0.3,0.3,0.6,0.7,0.8,1.2
		c0.2,0.5,0.3,1,0.3,1.4v1.2c0,0.5-0.1,1-0.3,1.4c-0.2,0.4-0.5,0.8-0.8,1.2c-0.3,0.3-0.7,0.6-1.2,0.8s-1,0.3-1.4,0.3l4.1,6.5
		L64.7,178.2z M64.5,166.8c0-0.3-0.1-0.6-0.2-0.9c-0.1-0.3-0.3-0.5-0.5-0.8c-0.2-0.2-0.5-0.4-0.8-0.5s-0.6-0.2-0.9-0.2h-3.4v6.1h3.4
		c0.3,0,0.6-0.1,0.9-0.2c0.6-0.3,1-0.7,1.3-1.3c0.1-0.3,0.2-0.6,0.2-0.9V166.8z"/>
	<path class="st2" d="M68.9,178.2v-15.1h1.4v15.1H68.9z M76.3,178.2l-5.7-7.6l5.7-7.6H78l-5.8,7.6l5.8,7.6H76.3z"/>
	<path class="st2" d="M88.4,174.7c0,0.5-0.1,1-0.3,1.4c-0.2,0.4-0.5,0.8-0.8,1.2c-0.3,0.3-0.8,0.6-1.2,0.8c-0.5,0.2-1,0.3-1.5,0.3
		h-1.1c-0.5,0-1-0.1-1.5-0.3s-0.9-0.5-1.2-0.8c-0.3-0.3-0.6-0.7-0.8-1.2c-0.2-0.5-0.3-1-0.3-1.4v-0.6l1.4-0.2v0.8
		c0,0.3,0.1,0.6,0.2,0.9c0.1,0.3,0.3,0.6,0.6,0.8c0.2,0.2,0.5,0.4,0.8,0.5s0.7,0.2,1,0.2h1c0.3,0,0.7-0.1,1-0.2
		c0.3-0.1,0.6-0.3,0.8-0.5c0.2-0.2,0.4-0.5,0.6-0.8c0.1-0.3,0.2-0.6,0.2-0.9v-0.4c0-0.5-0.1-0.9-0.3-1.3c-0.2-0.3-0.5-0.7-0.8-0.9
		c-0.4-0.3-0.7-0.5-1.2-0.6l-1.3-0.5c-0.4-0.2-0.9-0.4-1.3-0.6c-0.4-0.2-0.8-0.5-1.2-0.8c-0.3-0.3-0.6-0.7-0.8-1.1
		c-0.2-0.5-0.3-1.1-0.3-1.6v-0.3c0-0.5,0.1-1,0.3-1.4c0.2-0.4,0.4-0.8,0.7-1.1c0.3-0.3,0.7-0.6,1.2-0.8s1-0.3,1.4-0.3h1
		c0.5,0,1,0.1,1.4,0.3s0.8,0.5,1.2,0.8c0.3,0.3,0.6,0.7,0.8,1.2c0.2,0.5,0.3,0.9,0.3,1.4v0.4l-1.4,0.2v-0.6c0-0.3-0.1-0.6-0.2-0.9
		c-0.1-0.3-0.3-0.5-0.5-0.8c-0.2-0.2-0.5-0.4-0.8-0.5s-0.6-0.2-0.9-0.2h-0.8c-1.3,0-2.4,1.1-2.4,2.4l0,0v0.3c0,0.4,0.1,0.8,0.3,1.2
		c0.2,0.3,0.5,0.6,0.8,0.9c0.4,0.2,0.7,0.5,1.2,0.6c0.4,0.2,0.9,0.4,1.3,0.5s0.9,0.4,1.3,0.6c0.4,0.2,0.8,0.5,1.1,0.8
		c0.3,0.3,0.6,0.7,0.8,1.1c0.2,0.5,0.3,1.1,0.3,1.6L88.4,174.7z"/>
	<path class="st2" d="M98.5,178.2v-6.9h-5.8v6.9h-1.4v-15.1h1.4v6.9h5.8v-6.9h1.4v15.1H98.5z"/>
	<path class="st2" d="M111.3,176.2c-0.2,0.4-0.5,0.8-0.8,1.2c-0.3,0.3-0.7,0.6-1.2,0.8s-0.9,0.3-1.4,0.3h-1.1c-0.5,0-1-0.1-1.4-0.3
		s-0.8-0.5-1.2-0.8c-0.3-0.3-0.6-0.7-0.8-1.2c-0.2-0.5-0.3-1-0.3-1.4v-8.1c0-0.5,0.1-1,0.3-1.4c0.2-0.4,0.5-0.8,0.8-1.2
		c0.3-0.3,0.7-0.6,1.2-0.8s1-0.3,1.4-0.3h1.1c0.5,0,1,0.1,1.4,0.3c0.9,0.4,1.6,1.1,2,2c0.2,0.5,0.3,0.9,0.3,1.4v8.1
		C111.6,175.2,111.5,175.7,111.3,176.2z M110.3,166.6c0-0.3-0.1-0.6-0.2-0.9c-0.1-0.3-0.3-0.5-0.5-0.8c-0.4-0.5-1.1-0.7-1.7-0.7h-1
		c-0.3,0-0.6,0.1-0.9,0.2c-0.3,0.1-0.5,0.3-0.8,0.5c-0.2,0.2-0.4,0.5-0.5,0.8s-0.2,0.6-0.2,0.9v8.1c0,0.3,0.1,0.6,0.2,0.9
		c0.1,0.3,0.3,0.6,0.5,0.8s0.5,0.4,0.8,0.5s0.6,0.2,0.9,0.2h1c0.6,0,1.3-0.3,1.7-0.7c0.2-0.2,0.4-0.5,0.5-0.8s0.2-0.6,0.2-0.9V166.6
		z"/>
	<path class="st2" d="M123.1,170.1c-0.2,0.4-0.5,0.8-0.8,1.2c-0.7,0.7-1.6,1.1-2.6,1.1h-3.4v5.8h-1.4v-15.1h4.8c0.5,0,1,0.1,1.5,0.3
		c0.9,0.4,1.6,1.1,2,2c0.2,0.5,0.3,1,0.3,1.4v1.9C123.4,169.2,123.3,169.7,123.1,170.1z M122,166.8c0-0.3-0.1-0.6-0.2-0.9
		c-0.1-0.3-0.3-0.5-0.5-0.8c-0.2-0.2-0.5-0.4-0.8-0.5s-0.6-0.2-0.9-0.2h-3.4v6.7h3.4c0.3,0,0.7-0.1,0.9-0.2c0.3-0.1,0.5-0.3,0.8-0.5
		c0.2-0.2,0.4-0.5,0.5-0.8s0.2-0.6,0.2-0.9V166.8z"/>
	<path class="st2" d="M134.3,174.7c0,0.5-0.1,1-0.3,1.4s-0.5,0.8-0.8,1.2c-0.4,0.3-0.8,0.6-1.2,0.8c-0.5,0.2-1,0.3-1.5,0.3h-1.1
		c-0.5,0-1-0.1-1.5-0.3c-0.9-0.4-1.6-1.1-2.1-2c-0.2-0.5-0.3-1-0.3-1.4v-0.6l1.4-0.2v0.8c0,0.3,0.1,0.6,0.2,0.9
		c0.1,0.3,0.3,0.6,0.6,0.8c0.2,0.2,0.5,0.4,0.8,0.5s0.7,0.2,1,0.2h0.9c0.3,0,0.7-0.1,1-0.2c0.6-0.2,1.1-0.7,1.4-1.3
		c0.1-0.3,0.2-0.6,0.2-0.9v-0.4c0-0.5-0.1-0.9-0.3-1.3c-0.2-0.3-0.5-0.7-0.8-0.9c-0.4-0.3-0.7-0.5-1.1-0.6l-1.3-0.5
		c-0.4-0.2-0.9-0.4-1.3-0.6c-0.4-0.2-0.8-0.5-1.1-0.8c-0.3-0.3-0.6-0.7-0.8-1.1c-0.2-0.5-0.3-1.1-0.3-1.6v-0.3c0-0.5,0.1-1,0.3-1.4
		c0.2-0.4,0.5-0.8,0.8-1.2c0.3-0.3,0.7-0.6,1.2-0.8c0.5-0.2,1-0.3,1.4-0.3h1c0.5,0,1,0.1,1.4,0.3s0.8,0.5,1.2,0.8
		c0.3,0.3,0.6,0.7,0.8,1.2s0.3,0.9,0.3,1.4v0.4l-1.4,0.2v-0.6c0-0.3-0.1-0.6-0.2-0.9c-0.1-0.3-0.3-0.5-0.5-0.8
		c-0.5-0.5-1.1-0.7-1.7-0.7h-0.9c-0.3,0-0.6,0.1-0.9,0.2c-0.3,0.1-0.5,0.3-0.8,0.5c-0.2,0.2-0.4,0.5-0.5,0.8s-0.2,0.6-0.2,0.9v0.3
		c0,0.4,0.1,0.8,0.3,1.2c0.2,0.3,0.5,0.6,0.8,0.9c0.4,0.2,0.7,0.5,1.1,0.6l1.3,0.5c0.5,0.2,0.9,0.4,1.3,0.6c0.4,0.2,0.8,0.5,1.1,0.8
		s0.6,0.7,0.8,1.1c0.2,0.5,0.3,1.1,0.3,1.6V174.7z"/>
	
		<linearGradient id="SVGID_1_" gradientUnits="userSpaceOnUse" x1="-660.5609" y1="-1524.4471" x2="-603.5374" y2="-1524.4471" gradientTransform="matrix(0.7071 0.7071 -0.7071 0.7071 -550.5646 1584.9084)">
		<stop  offset="0" style="stop-color:#80CFFF"/>
		<stop  offset="1" style="stop-color:#83FFDE"/>
	</linearGradient>
	<path class="st3" d="M119.3,59.4c-0.6-1.6-1.3-3.1-2.1-4.5l0.1,0.1l5.7-5.7c1.4-1.4,1.4-3.8,0-5.2l0,0l-3.1-3.1l-3.1-3.1
		c-1.4-1.4-3.8-1.4-5.2,0l0,0l-5.7,5.7l0.1,0.1c-2.3-1.3-4.7-2.3-7.3-3h0.1v-8c0-2-1.7-3.7-3.7-3.7l0,0h-8.8c-2,0-3.7,1.7-3.7,3.7
		l0,0v8h0.1c-2.5,0.7-5,1.7-7.3,3l0.1-0.1l-5.7-5.7c-1.4-1.4-3.8-1.4-5.2,0l0,0L61.3,41l-3.1,3.1c-1.4,1.4-1.4,3.8,0,5.2l0,0
		l5.7,5.7l0.1-0.1c-1.3,2.3-2.3,4.7-3,7.3v-0.1h-8c-2,0-3.7,1.7-3.7,3.7l0,0v8.8c0,2,1.7,3.7,3.7,3.7l0,0h8v-0.1
		c0.7,2.5,1.7,5,3,7.3l-0.1-0.1l-5.7,5.7c-1.4,1.4-1.4,3.8,0,5.2l0,0l3.1,3.1l3.1,3.1c1.4,1.4,3.8,1.4,5.2,0l0,0l5.7-5.6l-0.1-0.1
		c1.1,0.7,2.3,1.2,3.6,1.8 M83.3,84c-1.4-0.7-2.6-1.7-3.8-2.8c-6.1-6.1-6.1-15.9,0-21.9s15.9-6.1,21.9,0c1.4,1.4,2.5,3.1,3.3,4.9"/>
	<path class="st4" d="M142.8,113.7l-4.4-4.4h-0.1c1-1.8,1.8-3.6,2.3-5.6l0,0h6.2c1.6,0,2.8-1.3,2.8-2.8v-6.7c0-1.6-1.3-2.8-2.8-2.8
		h-6.2l0,0c-0.5-2-1.3-3.8-2.3-5.6h0.1l4.4-4.4c1.1-1.1,1.1-2.9,0-4l-2.4-2.4l-2.4-2.4c-1.1-1.1-2.9-1.1-4,0l-4.4,4.4l0,0
		c-1.8-1-3.6-1.8-5.6-2.3l0,0v-6.1c0-1.6-1.3-2.8-2.8-2.8h-6.8c-1.6,0-2.8,1.3-2.8,2.8v6.2l0,0c-1.9,0.5-3.8,1.3-5.5,2.3l0,0
		l-4.4-4.4c-1.1-1.1-2.9-1.1-4,0L95.3,75l-2.4,2.4c-1.1,1.1-1.1,2.9,0,4l4.4,4.4l0,0c-1,1.8-1.7,3.7-2.2,5.6l0,0h-6.2
		c-1.6,0-2.8,1.3-2.8,2.8v6.8c0,1.6,1.3,2.8,2.8,2.8H95l0,0c0.5,2,1.3,3.8,2.3,5.6l0,0l-4.4,4.4c-1.1,1.1-1.1,2.9,0,4l2.4,2.4
		l2.4,2.4c1.1,1.1,2.9,1.1,4,0l4.4-4.4l0,0c1.8,1,3.6,1.8,5.6,2.3l0,0v6.2c0,1.6,1.3,2.8,2.8,2.8l0,0h6.8c1.6,0,2.8-1.3,2.8-2.8
		v-6.3H124c2-0.5,3.9-1.3,5.6-2.3l0,0l4.4,4.4c1.1,1.1,2.9,1.1,4,0l2.4-2.4l2.4-2.4C144.1,116.5,144,114.8,142.8,113.7z
		 M109.4,106.1c-4.7-4.7-4.7-12.3,0-17s12.3-4.7,17,0c4.7,4.7,4.7,12.3,0,17l0,0C121.6,110.7,114.1,110.7,109.4,106.1z"/>
	
		<linearGradient id="SVGID_2_" gradientUnits="userSpaceOnUse" x1="-612.4772" y1="-1524.3411" x2="-545.6927" y2="-1524.3411" gradientTransform="matrix(0.7071 0.7071 -0.7071 0.7071 -550.5646 1584.9084)">
		<stop  offset="0" style="stop-color:#80CFFF"/>
		<stop  offset="1" style="stop-color:#83FFDE"/>
	</linearGradient>
	<path class="st5" d="M142.8,113.7l-4.4-4.4h-0.1c1-1.8,1.8-3.6,2.3-5.6l0,0h6.2c1.6,0,2.8-1.3,2.8-2.8v-6.7c0-1.6-1.3-2.8-2.8-2.8
		h-6.2l0,0c-0.5-2-1.3-3.8-2.3-5.6h0.1l4.4-4.4c1.1-1.1,1.1-2.9,0-4l-2.4-2.4l-2.4-2.4c-1.1-1.1-2.9-1.1-4,0l-4.4,4.4l0,0
		c-1.8-1-3.6-1.8-5.6-2.3l0,0v-6.1c0-1.6-1.3-2.8-2.8-2.8h-6.8c-1.6,0-2.8,1.3-2.8,2.8v6.2l0,0c-1.9,0.5-3.8,1.3-5.5,2.3l0,0
		l-4.4-4.4c-1.1-1.1-2.9-1.1-4,0L95.3,75l-2.4,2.4c-1.1,1.1-1.1,2.9,0,4l4.4,4.4l0,0c-1,1.8-1.7,3.7-2.2,5.6l0,0h-6.2
		c-1.6,0-2.8,1.3-2.8,2.8v6.8c0,1.6,1.3,2.8,2.8,2.8H95l0,0c0.5,2,1.3,3.8,2.3,5.6l0,0l-4.4,4.4c-1.1,1.1-1.1,2.9,0,4l2.4,2.4
		l2.4,2.4c1.1,1.1,2.9,1.1,4,0l4.4-4.4l0,0c1.8,1,3.6,1.8,5.6,2.3l0,0v6.2c0,1.6,1.3,2.8,2.8,2.8l0,0h6.8c1.6,0,2.8-1.3,2.8-2.8
		v-6.3H124c2-0.5,3.9-1.3,5.6-2.3l0,0l4.4,4.4c1.1,1.1,2.9,1.1,4,0l2.4-2.4l2.4-2.4C144.1,116.5,144,114.8,142.8,113.7z
		 M109.4,106.1c-4.7-4.7-4.7-12.3,0-17s12.3-4.7,17,0c4.7,4.7,4.7,12.3,0,17l0,0C121.6,110.7,114.1,110.7,109.4,106.1z"/>
	<text transform="matrix(1 0 0 1 30.7505 177.7451)" class="st6 st7 st8">NON-TECH</text>
</g>
<g>
	<g>
		<defs>
			<rect id="SVGID_3_" x="51.6" y="45.9" width="90.5" height="66.9"/>
		</defs>
		<clipPath id="SVGID_4_">
			<use xlink:href="#SVGID_3_"  style="display:none;overflow:visible;"/>
		</clipPath>
		<g class="st9">
			<linearGradient id="SVGID_5_" gradientUnits="userSpaceOnUse" x1="66.1231" y1="75.0052" x2="150" y2="75.0052">
				<stop  offset="0" style="stop-color:#83FFDE"/>
				<stop  offset="1" style="stop-color:#80CFFF"/>
			</linearGradient>
			<path class="st10" d="M79.2,54.7c0.1-0.2,0.2-0.4,0.2-0.7c0.2-1.1,0.5-2.3,0.7-3.5c0.1-0.5,0.3-0.5,0.7-0.5c1.5,0,3.1,0,4.7,0
				c0.7,0,1-0.3,1-0.9c0-0.7,0.1-1.3,0-2c-0.1-1.3,0.3-2.5,0.7-3.7c0.1-0.2,0.5-0.5,0.8-0.5c0.8-0.1,1.5,0,2.3,0c4.3,0,8.6,0,12.9,0
				c1.3,0,1.3,0,1.8-1.3c0.2-0.6,0.5-1.1,0.9-1.6c0.5-0.7,1.2-1,2.2-1c5.2,0,10.4,0,15.6,0c1.3,0,2.3,0.8,2.8,2.1
				c0.2,0.4,0.5,0.8,0.9,1.1c3.1,2,6.5,3.6,9.4,6.2c6,5.4,10,11.8,11.8,19.7c0.6,2.6,1.2,5.1,1.4,7.8c0.3,3.6,0.2,7.3-0.4,10.9
				c-0.6,4-1.4,8-3,11.8c-2.3,5.2-5.9,9.3-11.1,11.6c-5.6,2.5-11.8-0.9-11.8-7.3c0-2.1,0.1-4.2,0.2-6.3c0-1,0.1-2,0-3
				c-0.1-1.6-0.9-2.1-2.5-1.9c-4.5,0.7-8.1-0.7-10.9-4.3c-0.7-0.8-1.1-1.9-1.5-2.9c-0.5-1.2-1.3-1.9-2.7-1.8c-0.8,0-1.6,0-2.4,0
				c-1.3-0.1-2.1,0.6-2.6,1.8c-0.6,1.6-1.5,3.1-2.8,4.3c-2.4,2.2-5.2,3.4-8.5,2.9c-1.7-0.2-2.3,0.3-2.3,2c-0.1,3.1-0.1,6.2-0.1,9.4
				c0,5.5-5,9.3-10.3,7.9c-1.2-0.3-2.4-0.9-3.5-1.5c-0.9-0.4-1.4-1.2-1.4-2.3c0-0.9,0-1.7,0-2.6c0-1.4-0.5-1.9-1.9-1.9
				c-0.9,0-1.8,0-2.7-0.1c-1.1-0.1-1.6-0.6-1.6-1.6c0-1.7-0.1-3.4,0-5c0.1-0.9,0.4-1.7,0.7-2.5c0.1-0.2,0.5-0.3,0.7-0.3
				c1.2,0,2.3,0,3.5,0c1.1,0,1.2-0.2,1.2-1.2c0-0.7-0.2-1.4-0.1-2.1c0.1-0.8,0.3-1.5,0.5-2.3c0-0.1,0.1-0.2,0.1-0.3
				c0.4-1.3,0.8-1.5,2.1-1.4c1.2,0.1,2.3,0,3.5,0c0.7,0,0.9-0.4,0.9-1c0-0.6,0-1.2,0-1.8c0-1.4-0.5-1.9-1.9-1.9c-1,0-1.9,0-2.9,0
				c-1.6,0-2.2-0.6-2.2-2.2c0-1.3-0.1-2.6,0-3.9c0.1-1,0.4-2,0.7-3c0.1-0.2,0.6-0.4,0.9-0.4c1.5,0,3,0,4.5,0c1,0,1-0.1,1.1-1.1
				c0-0.6,0.1-1.2,0-1.8c-0.2-1.4,0.4-2.6,0.7-3.9c0-0.1,0.4-0.3,0.6-0.3c1.7,0,3.3,0,5,0c0.6,0,0.9-0.3,0.9-0.9c0-0.7,0-1.5,0-2.2
				c-0.1-1-0.5-1.5-1.5-1.5c-1.4,0-2.8,0-4.2,0c-0.8,0-1.2,0.4-1.3,1.2c-0.1,0.6,0,1.2-0.1,1.8c-0.1,1.1-0.6,1.7-1.7,1.7
				c-1.9,0-3.8,0-5.7,0c-0.4,0-0.7-0.1-1.1-0.2c-0.5-0.1-0.8-0.4-0.8-1c0-2,0-4,0.1-6c0-0.8,0.4-1.7,0.7-2.5
				c0.1-0.2,0.4-0.4,0.7-0.4c2.2,0,4.4,0,6.7,0C78.6,54.3,78.9,54.5,79.2,54.7z M131.1,67.7c1.6,0,3-1,3-2.2c0-1.7-1.3-3-2.9-3
				c-1.7,0-3,1.3-3,3C128.2,66.7,129.6,67.7,131.1,67.7z M117.6,67.7c1.6,0,3-1.1,3-2.2c0-1.6-1.3-3-3-3c-1.7,0-3,1.4-3,3.1
				C114.6,66.7,116.1,67.7,117.6,67.7z M124.1,60.8c1.7,0,3-0.9,3-2.2c0-1.7-1.3-3-3-3c-1.7,0-3,1.3-3,3.1
				C121.1,59.8,122.5,60.8,124.1,60.8z M124.4,74.4C124.4,74.4,124.4,74.4,124.4,74.4c0.2,0,0.4,0,0.5,0c1.3-0.1,2.5-1.3,2.4-2.3
				c-0.2-1.7-1.7-3-3.5-2.7c-1.3,0.2-2.4,1.4-2.5,2.8c0,1,0.9,1.9,2.2,2.2C123.9,74.3,124.1,74.4,124.4,74.4z"/>
			<linearGradient id="SVGID_6_" gradientUnits="userSpaceOnUse" x1="48.4956" y1="72.9427" x2="70.0093" y2="72.9427">
				<stop  offset="0" style="stop-color:#83FFDE"/>
				<stop  offset="1" style="stop-color:#80CFFF"/>
			</linearGradient>
			<path class="st11" d="M58,62.9c0.3,0,0.8,0,1.2,0c3.1,0,6.2,0,9.3,0c0.5,0,0.6,0.2,0.9,0.6c1,1.4,0.4,2.9,0.5,4.3
				c0.1,2,0.1,4.1,0.1,6.1c0,1.8-0.7,2.5-2.5,2.5c-2.7,0-5.4,0-8.1-0.1c-0.6,0-1.1-0.1-1.7-0.2c-0.7-0.1-1,0.1-1.1,0.8
				c0,0.4-0.1,0.9-0.1,1.3c0,1,0,2,0,2.9c-0.1,1.1-0.6,1.7-1.8,1.7c-1.5,0-3,0-4.5,0c-1,0-1.6-0.5-1.7-1.6c-0.1-1.6-0.1-3.2,0-4.8
				c0-0.7,0.4-1.5,0.7-2.2c0.1-0.1,0.3-0.3,0.5-0.3c1.8,0,3.6,0,5.3,0c0.5,0,0.7,0.2,0.8,0.7c0,0.2,0.3,0.5,0.5,0.5
				c0.2,0,0.5-0.3,0.5-0.5c0.1-0.6,0.2-1.2,0.2-1.8c0-1.6,0-3.3,0-4.9C57.1,66.3,57,64.5,58,62.9z"/>
			<linearGradient id="SVGID_7_" gradientUnits="userSpaceOnUse" x1="59.2822" y1="85.5907" x2="71.0908" y2="85.5907">
				<stop  offset="0" style="stop-color:#83FFDE"/>
				<stop  offset="1" style="stop-color:#80CFFF"/>
			</linearGradient>
			<path class="st12" d="M65.1,79.3c1.4,0,2.7,0,4.1,0c0.7,0,0.9,0.3,1.2,0.9c0.9,1.9,0.4,3.9,0.5,5.9c0,1,0.1,2,0.1,2.9
				c0,1.9-0.9,2.7-2.8,2.7c-2.4,0-4.8,0-7.2,0c-1.2,0-1.8-0.7-1.8-1.9c0-2.6-0.1-5.1,0-7.7c0-0.9,0.4-1.7,0.7-2.6
				c0.1-0.2,0.6-0.3,0.9-0.3C62.3,79.3,63.7,79.3,65.1,79.3z"/>
			<linearGradient id="SVGID_8_" gradientUnits="userSpaceOnUse" x1="66.7878" y1="47.2959" x2="77.3559" y2="47.2959">
				<stop  offset="0" style="stop-color:#83FFDE"/>
				<stop  offset="1" style="stop-color:#80CFFF"/>
			</linearGradient>
			<path class="st13" d="M72,41.6c1.2,0,2.3,0,3.5,0c0.8,0,1.1,0.3,1.4,1c0.6,1.4,0.4,2.8,0.4,4.2c0,1.4,0,2.8,0,4.2
				c0,1.4-0.6,2.1-2,2.1c-2.2,0-4.4,0-6.6,0c-1.2,0-1.8-0.5-1.8-1.7c-0.1-2.4-0.1-4.8,0-7.1c0-0.8,0.4-1.6,0.7-2.3
				c0-0.1,0.4-0.2,0.6-0.2C69.4,41.6,70.7,41.6,72,41.6C72,41.6,72,41.6,72,41.6z"/>
			<linearGradient id="SVGID_9_" gradientUnits="userSpaceOnUse" x1="54.4713" y1="54.3875" x2="64.4928" y2="54.3875">
				<stop  offset="0" style="stop-color:#83FFDE"/>
				<stop  offset="1" style="stop-color:#80CFFF"/>
			</linearGradient>
			<path class="st14" d="M54.5,54.7c0-0.7-0.1-1.4,0-2.1c0.1-1.1,0.4-2.3,0.6-3.4c0-0.1,0.4-0.3,0.5-0.3c2.5,0,4.9,0,7.4,0
				c0.2,0,0.7,0.2,0.7,0.4c0.3,1.2,0.8,2.4,0.7,3.7c-0.1,1.5,0,3,0,4.6c0,1.4-0.5,2-1.9,2.1c-2,0.1-4.1,0.1-6.1,0
				c-1.2,0-1.9-0.8-1.9-2C54.5,56.8,54.5,55.7,54.5,54.7C54.5,54.7,54.5,54.7,54.5,54.7z"/>
			<linearGradient id="SVGID_10_" gradientUnits="userSpaceOnUse" x1="45.113" y1="65.5633" x2="54.8506" y2="65.5633">
				<stop  offset="0" style="stop-color:#83FFDE"/>
				<stop  offset="1" style="stop-color:#80CFFF"/>
			</linearGradient>
			<path class="st15" d="M54.8,65.9c0,1,0,2,0,2.9c0,1.3-0.6,1.9-1.9,2c-2,0.1-4.1,0.1-6.1,0c-1,0-1.7-0.6-1.7-1.6
				c0-2.2,0-4.4,0.1-6.7c0-0.7,0.3-1.4,0.6-2c0.1-0.2,0.5-0.2,0.7-0.2c1.8,0,3.6,0,5.4,0c2.2,0,2.2,0,2.7,2c0.2,0.7,0.1,1.5,0.1,2.2
				C54.9,65,54.8,65.4,54.8,65.9C54.8,65.9,54.8,65.9,54.8,65.9z"/>
			<linearGradient id="SVGID_11_" gradientUnits="userSpaceOnUse" x1="40.5" y1="74.901" x2="45.8345" y2="74.901">
				<stop  offset="0" style="stop-color:#83FFDE"/>
				<stop  offset="1" style="stop-color:#80CFFF"/>
			</linearGradient>
			<path class="st16" d="M43.1,71.9C43,71.9,43.1,71.9,43.1,71.9c0.6,0,1.6-0.2,1.8,0.1c0.5,0.8,0.8,1.8,0.8,2.7
				c0.2,2.7-0.6,3.4-3.3,3.1c-1.5-0.1-1.8-0.6-2-2.1c-0.1-1.3,0.5-2.5,0.8-3.7c0-0.1,0.3-0.3,0.5-0.3C42.2,71.8,42.6,71.9,43.1,71.9
				z"/>
			<linearGradient id="SVGID_12_" gradientUnits="userSpaceOnUse" x1="114.5813" y1="65.0985" x2="120.5592" y2="65.0985">
				<stop  offset="0" style="stop-color:#83FFDE"/>
				<stop  offset="1" style="stop-color:#80CFFF"/>
			</linearGradient>
			<path class="st17" d="M117.6,67.7c-1.5,0-3-1-3-2.1c0-1.7,1.3-3.1,3-3.1c1.6,0,2.9,1.3,3,3C120.6,66.7,119.2,67.7,117.6,67.7z"/>
			<linearGradient id="SVGID_13_" gradientUnits="userSpaceOnUse" x1="121.1162" y1="58.231" x2="127.1068" y2="58.231">
				<stop  offset="0" style="stop-color:#83FFDE"/>
				<stop  offset="1" style="stop-color:#80CFFF"/>
			</linearGradient>
			<path class="st18" d="M124.1,55.7c1.7,0,3,1.3,3,3c0,1.2-1.3,2.2-3,2.2c-1.6,0-3-1-3-2.1"/>
			<linearGradient id="SVGID_14_" gradientUnits="userSpaceOnUse" x1="121.3803" y1="71.8354" x2="127.3477" y2="71.8354">
				<stop  offset="0" style="stop-color:#83FFDE"/>
				<stop  offset="1" style="stop-color:#80CFFF"/>
			</linearGradient>
			<path class="st19" d="M124.4,74.3C124.4,74.4,124.4,74.4,124.4,74.3c-0.3,0-0.5,0-0.8-0.1c-1.4-0.3-2.3-1.2-2.2-2.2
				c0.1-1.3,1.2-2.6,2.5-2.8c1.7-0.2,3.3,1,3.5,2.7"/>
		</g>
	</g>
</g>
</svg>
