<?xml version="1.0" encoding="utf-8"?>
<!-- Generator: Adobe Illustrator 21.1.0, SVG Export Plug-In . SVG Version: 6.00 Build 0)  -->
<svg version="1.1" id="Layer_1" xmlns="http://www.w3.org/2000/svg" xmlns:xlink="http://www.w3.org/1999/xlink" x="0px" y="0px"
	 viewBox="0 0 200 200" style="enable-background:new 0 0 200 200;" xml:space="preserve">
<style type="text/css">
	.st0{opacity:0.17;fill:#8DD6FF;stroke:#007ACC;stroke-miterlimit:10;enable-background:new    ;}
	.st1{opacity:0.2;fill:#8FAAFF;stroke:#007ACC;stroke-miterlimit:10;enable-background:new    ;}
	.st2{opacity:0.14;fill:#C5FFF9;enable-background:new    ;}
	.st3{display:none;fill:none;stroke:url(#SVGID_1_);stroke-width:3;stroke-linecap:round;stroke-linejoin:round;}
	.st4{display:none;fill:none;stroke:url(#SVGID_2_);stroke-width:3;stroke-linecap:round;stroke-linejoin:round;}
	.st5{display:none;fill:none;stroke:url(#SVGID_3_);stroke-width:3;stroke-linecap:round;stroke-linejoin:round;}
	.st6{display:none;fill:none;stroke:url(#SVGID_4_);stroke-width:3;stroke-linecap:round;stroke-linejoin:round;}
	.st7{display:none;fill:none;stroke:url(#SVGID_5_);stroke-width:3;stroke-linecap:round;stroke-linejoin:round;}
	.st8{display:none;fill:none;stroke:url(#SVGID_6_);stroke-width:3;stroke-linecap:round;stroke-linejoin:round;}
	.st9{display:none;fill:none;stroke:url(#SVGID_7_);stroke-width:3;stroke-linecap:round;stroke-linejoin:round;}
	.st10{display:none;fill:none;stroke:url(#SVGID_8_);stroke-width:3;stroke-linecap:round;stroke-linejoin:round;}
	.st11{display:none;fill:#FFFFFF;}
	.st12{fill:url(#SVGID_9_);stroke:url(#SVGID_10_);stroke-miterlimit:10;}
	.st13{fill:url(#SVGID_11_);stroke:url(#SVGID_12_);stroke-miterlimit:10;}
	.st14{fill:url(#SVGID_13_);stroke:url(#SVGID_14_);stroke-miterlimit:10;}
	.st15{fill:url(#SVGID_15_);stroke:url(#SVGID_16_);stroke-miterlimit:10;}
	.st16{fill:url(#SVGID_17_);stroke:url(#SVGID_18_);stroke-miterlimit:10;}
	.st17{fill:url(#SVGID_19_);stroke:url(#SVGID_20_);stroke-miterlimit:10;}
	.st18{fill:#FFFFFF;}
	.st19{font-family:'Square721BT-RomanCondensed';}
	.st20{font-size:19.24px;}
	.st21{letter-spacing:1;}
</style>
<title>gamescape</title>
<g id="Layer_2">
	<polygon class="st0" points="174.3,10 100.3,10 26.3,10 9.8,26.5 9.8,78 9.8,129.5 26.3,146 100.3,146 174.3,146 190.8,129.5 
		190.8,78 190.8,26.5 	"/>
	<polygon class="st1" points="172.3,151 99.3,151 26.3,151 9.3,168 9.3,170.5 9.3,173 26.3,190 99.3,190 172.3,190 189.3,173 
		189.3,170.5 189.3,168 	"/>
	<path class="st2" d="M88.9,55.6c-6.6,6.6-10.4,15.4-10.7,24.7c17.6,2,33.4-10.6,35.4-28.2c0.3-2.4,0.3-4.8,0-7.2
		C104.3,45.3,95.5,49.1,88.9,55.6z"/>
	<path class="st2" d="M140.6,107.4c6.7-6.7,10.5-15.6,10.7-25.1c-17.5-2.2-33.5,10.2-35.8,27.7c-0.3,2.7-0.3,5.4,0,8
		C125,117.9,134,114,140.6,107.4z"/>
	
		<linearGradient id="SVGID_1_" gradientUnits="userSpaceOnUse" x1="-846.1488" y1="-1746.2781" x2="-770.0128" y2="-1746.2781" gradientTransform="matrix(0.7071 -0.7071 -0.7071 -0.7071 -548.6207 -1724.7045)">
		<stop  offset="0" style="stop-color:#80CFFF"/>
		<stop  offset="1" style="stop-color:#83FFDE"/>
	</linearGradient>
	<line class="st3" x1="88.9" y1="107.4" x2="140.6" y2="55.6"/>
	
		<linearGradient id="SVGID_2_" gradientUnits="userSpaceOnUse" x1="-809.58" y1="-1746.2781" x2="-806.58" y2="-1746.2781" gradientTransform="matrix(0.7071 -0.7071 -0.7071 -0.7071 -548.6207 -1724.7045)">
		<stop  offset="0" style="stop-color:#80CFFF"/>
		<stop  offset="1" style="stop-color:#83FFDE"/>
	</linearGradient>
	<line class="st4" x1="88.9" y1="55.6" x2="140.6" y2="107.4"/>
	
		<linearGradient id="SVGID_3_" gradientUnits="userSpaceOnUse" x1="-846.1543" y1="-1746.2745" x2="-770.0143" y2="-1746.2745" gradientTransform="matrix(0.7071 -0.7071 -0.7071 -0.7071 -548.6207 -1724.7045)">
		<stop  offset="0" style="stop-color:#80CFFF"/>
		<stop  offset="1" style="stop-color:#83FFDE"/>
	</linearGradient>
	<circle class="st5" cx="114.8" cy="81.5" r="36.6"/>
	
		<linearGradient id="SVGID_4_" gradientUnits="userSpaceOnUse" x1="-834.6159" y1="-1720.7015" x2="-781.5811" y2="-1720.7015" gradientTransform="matrix(0.7071 -0.7071 -0.7071 -0.7071 -548.6207 -1724.7045)">
		<stop  offset="0" style="stop-color:#80CFFF"/>
		<stop  offset="1" style="stop-color:#83FFDE"/>
	</linearGradient>
	<path class="st6" d="M88.9,55.6c-6.6,6.6-10.4,15.4-10.7,24.7c17.6,2,33.4-10.6,35.4-28.2c0.3-2.4,0.3-4.8,0-7.2
		C104.3,45.3,95.5,49.1,88.9,55.6z"/>
	
		<linearGradient id="SVGID_5_" gradientUnits="userSpaceOnUse" x1="-834.8705" y1="-1771.567" x2="-781.2982" y2="-1771.567" gradientTransform="matrix(0.7071 -0.7071 -0.7071 -0.7071 -548.6207 -1724.7045)">
		<stop  offset="0" style="stop-color:#80CFFF"/>
		<stop  offset="1" style="stop-color:#83FFDE"/>
	</linearGradient>
	<path class="st7" d="M140.6,107.4c6.7-6.7,10.5-15.6,10.7-25.1c-17.5-2.2-33.5,10.2-35.8,27.7c-0.3,2.7-0.3,5.4,0,8
		C125,117.9,134,114,140.6,107.4z"/>
	
		<linearGradient id="SVGID_6_" gradientUnits="userSpaceOnUse" x1="64.8" y1="158.34" x2="88.38" y2="158.34" gradientTransform="matrix(1 0 0 -1 0 202)">
		<stop  offset="0" style="stop-color:#80CFFF"/>
		<stop  offset="1" style="stop-color:#83FFDE"/>
	</linearGradient>
	<line class="st8" x1="86.9" y1="43.7" x2="66.3" y2="43.7"/>
	
		<linearGradient id="SVGID_7_" gradientUnits="userSpaceOnUse" x1="64.8" y1="82.66" x2="88.38" y2="82.66" gradientTransform="matrix(1 0 0 -1 0 202)">
		<stop  offset="0" style="stop-color:#80CFFF"/>
		<stop  offset="1" style="stop-color:#83FFDE"/>
	</linearGradient>
	<line class="st9" x1="86.9" y1="119.3" x2="66.3" y2="119.3"/>
	
		<linearGradient id="SVGID_8_" gradientUnits="userSpaceOnUse" x1="46.65" y1="120.5" x2="70.24" y2="120.5" gradientTransform="matrix(1 0 0 -1 0 202)">
		<stop  offset="0" style="stop-color:#80CFFF"/>
		<stop  offset="1" style="stop-color:#83FFDE"/>
	</linearGradient>
	<line class="st10" x1="68.7" y1="81.5" x2="48.2" y2="81.5"/>
	<path class="st11" d="M36,178.2h-0.4l-0.8-1.2c-0.3,0.4-0.7,0.8-1.2,1c-0.5,0.3-1,0.4-1.6,0.4h-0.8c-0.5,0-1-0.1-1.5-0.3
		c-0.4-0.2-0.8-0.5-1.2-0.8c-0.3-0.3-0.6-0.7-0.8-1.2c-0.2-0.5-0.3-1-0.3-1.4v-8.1c0-0.5,0.1-1,0.3-1.4c0.4-0.9,1.1-1.6,2-2
		c0.5-0.2,1-0.3,1.5-0.3h1.1c0.5,0,1,0.1,1.4,0.3c0.4,0.2,0.8,0.5,1.2,0.8c0.3,0.3,0.6,0.7,0.8,1.2c0.2,0.5,0.3,0.9,0.3,1.4v0.6
		l-1.4,0.2v-0.8c0-0.3-0.1-0.6-0.2-0.9c-0.1-0.3-0.3-0.5-0.5-0.8c-0.2-0.2-0.5-0.4-0.8-0.5c-0.3-0.1-0.6-0.2-0.9-0.2h-1
		c-0.3,0-0.7,0.1-1,0.2c-0.3,0.1-0.5,0.3-0.8,0.5c-0.2,0.2-0.4,0.5-0.5,0.8c-0.1,0.3-0.2,0.6-0.2,0.9v8.1c0,0.6,0.3,1.3,0.7,1.7
		c0.2,0.2,0.5,0.4,0.8,0.5c0.3,0.1,0.7,0.2,1,0.2h1c0.3,0,0.6-0.1,0.9-0.2c0.6-0.3,1-0.7,1.3-1.3c0.1-0.3,0.2-0.6,0.2-0.9v-3.2h-2.4
		v-1.3H36V178.2z"/>
	<path class="st11" d="M44.9,174.7h-4.8l-1,3.5h-1.4l4.4-15.1h0.7l4.4,15.1h-1.4L44.9,174.7z M40.5,173.4h4.1l-2-7v-0.6v0.6
		L40.5,173.4z"/>
	<path class="st11" d="M58.6,178.2v-10.4l-0.1,0.6l-3.5,9.7h-0.7l-3.6-9.7l-0.1-0.6v10.4h-1.4v-15.1H50l4.6,12.4v0.6v-0.6l4.6-12.4
		h0.7v15.1H58.6z"/>
	<path class="st11" d="M63.4,178.2v-15.1h8.5v1.3h-7.2v5.6h5.8v1.3h-5.8v5.6h7.2v1.3L63.4,178.2z"/>
	<path class="st11" d="M82.8,174.7c0,0.5-0.1,1-0.3,1.4c-0.2,0.4-0.5,0.8-0.8,1.2c-0.3,0.3-0.8,0.6-1.2,0.8c-0.5,0.2-1,0.3-1.5,0.3
		h-1.1c-0.5,0-1-0.1-1.5-0.3c-0.5-0.2-0.9-0.5-1.2-0.8c-0.3-0.3-0.6-0.7-0.8-1.2c-0.2-0.5-0.3-0.9-0.3-1.4v-0.6l1.4-0.2v0.8
		c0,0.3,0.1,0.6,0.2,0.9c0.1,0.3,0.3,0.6,0.6,0.8c0.2,0.2,0.5,0.4,0.8,0.5c0.3,0.1,0.7,0.2,1,0.2h1c0.7,0,1.3-0.3,1.8-0.7
		c0.2-0.2,0.4-0.5,0.6-0.8c0.1-0.3,0.2-0.6,0.2-0.9v-0.4c0-0.5-0.1-0.9-0.3-1.3c-0.2-0.3-0.5-0.7-0.8-0.9c-0.4-0.3-0.7-0.5-1.2-0.6
		l-1.3-0.5c-0.4-0.2-0.9-0.4-1.3-0.6c-0.4-0.2-0.8-0.5-1.1-0.8c-0.3-0.3-0.6-0.7-0.8-1.1c-0.2-0.5-0.3-1.1-0.3-1.6v-0.3
		c0-0.5,0.1-1,0.3-1.4c0.4-0.9,1.1-1.6,2-2c0.5-0.2,1-0.3,1.5-0.3h1c0.5,0,1,0.1,1.4,0.3c0.9,0.4,1.6,1.1,2,2
		c0.2,0.5,0.3,0.9,0.3,1.4v0.4l-1.4,0.2v-0.6c0-0.3-0.1-0.6-0.2-0.9c-0.1-0.3-0.3-0.5-0.5-0.8c-0.2-0.2-0.5-0.4-0.8-0.5
		c-0.3-0.1-0.6-0.2-0.9-0.2h-0.8c-0.3,0-0.7,0.1-1,0.2c-0.3,0.1-0.5,0.3-0.8,0.5c-0.2,0.2-0.4,0.5-0.5,0.8c-0.1,0.3-0.2,0.6-0.2,0.9
		v0.3c0,0.4,0.1,0.9,0.3,1.2c0.2,0.3,0.5,0.6,0.8,0.9c0.4,0.2,0.7,0.5,1.2,0.6c0.4,0.2,0.9,0.4,1.3,0.5s0.9,0.4,1.3,0.6
		c0.4,0.2,0.8,0.5,1.2,0.8c0.3,0.3,0.6,0.7,0.8,1.1c0.2,0.5,0.3,1.1,0.3,1.6L82.8,174.7z"/>
	<path class="st11" d="M93.7,176.2c-0.2,0.4-0.5,0.8-0.8,1.2c-0.3,0.3-0.7,0.6-1.2,0.8c-0.5,0.2-1,0.3-1.4,0.3h-1.1
		c-0.5,0-1-0.1-1.5-0.3c-0.4-0.2-0.8-0.4-1.2-0.8c-0.3-0.3-0.6-0.7-0.8-1.2c-0.2-0.5-0.3-1-0.3-1.4v-8.1c0-0.5,0.1-1,0.3-1.4
		c0.4-0.9,1.1-1.6,2-2c0.5-0.2,1-0.3,1.5-0.3h1.1c0.5,0,1,0.1,1.4,0.3c0.4,0.2,0.8,0.5,1.2,0.8c0.3,0.3,0.6,0.7,0.8,1.2
		c0.2,0.5,0.3,0.9,0.3,1.4v0.6l-1.4,0.2v-0.8c0-0.3-0.1-0.6-0.2-0.9c-0.1-0.3-0.3-0.5-0.5-0.8c-0.5-0.5-1.1-0.7-1.7-0.7h-1
		c-0.3,0-0.7,0.1-1,0.2c-0.6,0.2-1,0.7-1.3,1.3c-0.1,0.3-0.2,0.6-0.2,0.9v8.1c0,0.3,0.1,0.6,0.2,0.9c0.3,0.6,0.7,1,1.3,1.3
		c0.3,0.1,0.7,0.2,1,0.2h1c0.3,0,0.6-0.1,0.9-0.2c0.3-0.1,0.6-0.3,0.8-0.5c0.5-0.5,0.7-1.1,0.7-1.7v-0.8l1.4,0.2v0.6
		C94,175.2,93.9,175.7,93.7,176.2z"/>
	<path class="st11" d="M102.7,174.7h-4.8l-1,3.5h-1.4l4.5-15.1h0.7l4.4,15.1h-1.4L102.7,174.7z M98.3,173.4h4.1l-2-7v-0.6v0.6
		L98.3,173.4z"/>
	<path class="st11" d="M115.3,170.1c-0.2,0.4-0.5,0.8-0.8,1.2c-0.3,0.3-0.7,0.6-1.2,0.8c-0.5,0.2-1,0.3-1.4,0.3h-3.4v5.8h-1.4v-15.1
		h4.8c0.5,0,1,0.1,1.4,0.3c0.9,0.4,1.6,1.1,2,2c0.2,0.5,0.3,1,0.3,1.4v1.9C115.6,169.2,115.5,169.7,115.3,170.1z M114.2,166.8
		c0-0.3-0.1-0.6-0.2-0.9c-0.1-0.3-0.3-0.5-0.5-0.8c-0.2-0.2-0.5-0.4-0.8-0.5c-0.3-0.1-0.7-0.2-1-0.2h-3.4v6.7h3.4
		c0.3,0,0.7-0.1,1-0.2c0.3-0.1,0.5-0.3,0.8-0.5c0.2-0.2,0.4-0.5,0.5-0.8c0.1-0.3,0.2-0.6,0.2-0.9V166.8z"/>
	<path class="st11" d="M118.2,178.2v-15.1h8.5v1.3h-7.2v5.6h5.8v1.3h-5.8v5.6h7.2v1.3L118.2,178.2z"/>
</g>
<g>
	<g>
		<g>
			<linearGradient id="SVGID_9_" gradientUnits="userSpaceOnUse" x1="95.411" y1="54.4384" x2="82.7268" y2="32.4686">
				<stop  offset="0" style="stop-color:#83FFDE"/>
				<stop  offset="1" style="stop-color:#80CFFF"/>
			</linearGradient>
			<linearGradient id="SVGID_10_" gradientUnits="userSpaceOnUse" x1="75.8867" y1="43.4535" x2="102.2511" y2="43.4535">
				<stop  offset="0" style="stop-color:#83FFDE"/>
				<stop  offset="1" style="stop-color:#80CFFF"/>
			</linearGradient>
			<circle class="st12" cx="89.1" cy="43.5" r="12.7"/>
		</g>
	</g>
	<g>
		<g>
			<linearGradient id="SVGID_11_" gradientUnits="userSpaceOnUse" x1="107.8434" y1="124.3805" x2="73.4625" y2="64.831">
				<stop  offset="0" style="stop-color:#83FFDE"/>
				<stop  offset="1" style="stop-color:#80CFFF"/>
			</linearGradient>
			<linearGradient id="SVGID_12_" gradientUnits="userSpaceOnUse" x1="69.5459" y1="97.3527" x2="108.5943" y2="97.3527">
				<stop  offset="0" style="stop-color:#83FFDE"/>
				<stop  offset="1" style="stop-color:#80CFFF"/>
			</linearGradient>
			<path class="st13" d="M108.1,90.6l-2.9-22.4c-0.3-3.3-3-5.7-6.3-5.7h-3.5c-0.8,0-1.6,0.3-2.2,0.9l-4.1,4.1L85,63.4
				c-0.6-0.6-1.4-0.9-2.2-0.9h-3.5c-3.3,0-6,2.5-6.3,5.6l-2.9,22.5c-0.1,0.9,0.2,1.8,0.8,2.5c0.6,0.7,1.5,1.1,2.4,1.1h3.4l2.7,32.3
				c0.3,3.2,3,5.7,6.3,5.7h6.9c3.3,0,6-2.5,6.3-5.8l2.6-32.3h3.4c0.9,0,1.8-0.4,2.4-1.1C107.9,92.4,108.2,91.5,108.1,90.6z"/>
		</g>
	</g>
	<g>
		<g>
			<linearGradient id="SVGID_13_" gradientUnits="userSpaceOnUse" x1="127.1164" y1="54.4384" x2="114.4322" y2="32.4686">
				<stop  offset="0" style="stop-color:#83FFDE"/>
				<stop  offset="1" style="stop-color:#80CFFF"/>
			</linearGradient>
			<linearGradient id="SVGID_14_" gradientUnits="userSpaceOnUse" x1="107.5921" y1="43.4535" x2="133.9565" y2="43.4535">
				<stop  offset="0" style="stop-color:#83FFDE"/>
				<stop  offset="1" style="stop-color:#80CFFF"/>
			</linearGradient>
			<circle class="st14" cx="120.8" cy="43.5" r="12.7"/>
		</g>
	</g>
	<g>
		<g>
			<linearGradient id="SVGID_15_" gradientUnits="userSpaceOnUse" x1="63.7024" y1="54.434" x2="51.0229" y2="32.4725">
				<stop  offset="0" style="stop-color:#83FFDE"/>
				<stop  offset="1" style="stop-color:#80CFFF"/>
			</linearGradient>
			<linearGradient id="SVGID_16_" gradientUnits="userSpaceOnUse" x1="44.1813" y1="43.4535" x2="70.5457" y2="43.4535">
				<stop  offset="0" style="stop-color:#83FFDE"/>
				<stop  offset="1" style="stop-color:#80CFFF"/>
			</linearGradient>
			<path class="st15" d="M57.4,30.8c-7,0-12.7,5.7-12.7,12.7s5.7,12.7,12.7,12.7c7,0,12.7-5.7,12.7-12.7S64.4,30.8,57.4,30.8z"/>
		</g>
	</g>
	<g>
		<g>
			<linearGradient id="SVGID_17_" gradientUnits="userSpaceOnUse" x1="138.1803" y1="118.8332" x2="106.7833" y2="64.4521">
				<stop  offset="0" style="stop-color:#83FFDE"/>
				<stop  offset="1" style="stop-color:#80CFFF"/>
			</linearGradient>
			<linearGradient id="SVGID_18_" gradientUnits="userSpaceOnUse" x1="108.3638" y1="94.1822" x2="140.2997" y2="94.1822">
				<stop  offset="0" style="stop-color:#83FFDE"/>
				<stop  offset="1" style="stop-color:#80CFFF"/>
			</linearGradient>
			<path class="st16" d="M139.8,90.6l-2.9-22.4c-0.3-3.3-3-5.7-6.3-5.7h-3.5c-0.8,0-1.6,0.3-2.2,0.9l-4.1,4.1l-4.1-4.1
				c-0.6-0.6-1.4-0.9-2.2-0.9H111c-0.4,0-0.7,0.1-1.1,0.2c0.8,1.4,1.5,3,1.6,4.8l2.9,22.3c0.4,2.7-0.5,5.5-2.3,7.5
				c-0.9,1-2,1.7-3.1,2.2l2.1,20.6c0.3,3.3,3,5.7,6.3,5.7h6.9c3.3,0,6-2.5,6.3-5.8l2.6-25.9h3.4c0.9,0,1.8-0.4,2.4-1.1
				C139.6,92.4,139.9,91.5,139.8,90.6z"/>
		</g>
	</g>
	<g>
		<g>
			<linearGradient id="SVGID_19_" gradientUnits="userSpaceOnUse" x1="73.747" y1="119.4198" x2="42.1118" y2="64.6261">
				<stop  offset="0" style="stop-color:#83FFDE"/>
				<stop  offset="1" style="stop-color:#80CFFF"/>
			</linearGradient>
			<linearGradient id="SVGID_20_" gradientUnits="userSpaceOnUse" x1="37.8404" y1="94.1822" x2="69.7928" y2="94.1822">
				<stop  offset="0" style="stop-color:#83FFDE"/>
				<stop  offset="1" style="stop-color:#80CFFF"/>
			</linearGradient>
			<path class="st17" d="M66.1,97.3c-1.8-2-2.6-4.8-2.3-7.5l2.9-22.5c0.2-1.7,0.8-3.2,1.6-4.6c-0.4-0.1-0.7-0.2-1.1-0.2h-3.5
				c-0.8,0-1.6,0.3-2.2,0.9l-4.1,4.1l-4.1-4.1c-0.6-0.6-1.4-0.9-2.2-0.9h-3.5c-3.3,0-6,2.5-6.3,5.6l-2.9,22.5
				c-0.1,0.9,0.2,1.8,0.8,2.5c0.6,0.7,1.5,1.1,2.4,1.1h3.4l2.7,26c0.3,3.2,3,5.7,6.3,5.7h6.9c3.3,0,6-2.5,6.3-5.8l2.1-20.6
				C68.1,99,67,98.3,66.1,97.3z"/>
		</g>
	</g>
</g>
<text transform="matrix(1 0 0 1 28.0127 176.8984)" class="st18 st19 st20 st21">TEAM</text>
</svg>
