<?xml version="1.0" encoding="utf-8"?>
<!-- Generator: Adobe Illustrator 21.1.0, SVG Export Plug-In . SVG Version: 6.00 Build 0)  -->
<svg version="1.1" id="Layer_1" xmlns="http://www.w3.org/2000/svg" xmlns:xlink="http://www.w3.org/1999/xlink" x="0px" y="0px"
	 viewBox="0 0 200 200" style="enable-background:new 0 0 200 200;" xml:space="preserve">
<style type="text/css">
	.st0{opacity:0.17;fill:#8DD6FF;stroke:#007ACC;stroke-miterlimit:10;enable-background:new    ;}
	.st1{opacity:0.2;fill:#8FAAFF;stroke:#007ACC;stroke-miterlimit:10;enable-background:new    ;}
	.st2{fill:#FFFFFF;}
	.st3{font-family:'MyriadPro-Regular';}
	.st4{font-size:20px;}
	.st5{fill:#CCCCCC;}
</style>
<title>brain_freeze</title>
<polygon class="st0" points="168.3,10 94.3,10 20.3,10 3.8,26.5 3.8,78 3.8,129.5 20.3,146 94.3,146 168.3,146 184.8,129.5 
	184.8,78 184.8,26.5 "/>
<polygon class="st1" points="166.3,151 93.3,151 20.3,151 3.3,168 3.3,170.5 3.3,173 20.3,190 93.3,190 166.3,190 183.3,173 
	183.3,170.5 183.3,168 "/>
<text transform="matrix(1 0 0 1 19.7917 176.8993)" class="st2 st3 st4">TECH EVENTS</text>
<g>
	<path class="st5" d="M102.5,30.4c1.3,0.1,2.5,0.2,3.8,0.4c10.5,1.2,19.8,5,28,11.7c10.7,8.7,17,20,19.4,33.5
		c0.5,2.9,0.9,5.9,0.7,8.8c0,0.6,0.2,1.2,0.2,1.8c-1.7,0-3.4,0-5,0s-3.2-0.1-4.8-0.1c-1.9,0-3.8,0.1-5.7,0.1c-0.4,0-0.6,0.1-0.6,0.6
		c0,2.6-0.1,5.2-0.1,7.8c0,0.8,0.3,1.6,0.4,2.4c0.1,0.6,0.1,1.2-0.1,1.7c-0.2,0.5-0.7,0.8-1.4,0.6c-1-0.3-1.3-0.6-1.2-1.4
		s0.4-1.7,0.6-2.5c0.4-1.5,0.3-3,0.1-4.6c-0.1-1.2-0.1-2.5-0.2-3.7c0-0.7-0.3-1.1-1-1.1c-1.3,0-2.7,0-4,0c-0.4,0-0.6,0.2-0.6,0.6
		c0,0.8,0,1.7,0,2.5c0,4.3,0,8.6,0,12.8c0,0.7,0.3,0.9,0.9,1c0.6,0,1.2-0.1,1.7-0.1c2.6,0.1,5.2,0.2,7.8,0.3c0.2,0,0.5,0.4,0.5,0.6
		c0.1,1.5,0.2,3.1,0.2,4.6c0,3.4,0,6.7,0,10.1c0,0.6-0.2,0.9-0.9,0.9s-0.7-0.4-0.7-0.9c0-4.5,0-9,0-13.5c0-0.8-0.2-1-1-0.9
		c-1.7,0.1-3.5,0.1-5.2,0.1c-1.5,0-3-0.1-4.4-0.1c-0.7,0-0.9-0.4-0.9-1c0-5.3,0-10.6,0-15.9c0-1.1,0-1.1-1.1-1.1c-1.7,0-3.4,0-5.1,0
		c-0.7,0-0.9,0.2-0.9,0.9c0,3.2,0,6.3,0,9.5c0,1.4,0.2,2.7,0.3,4.1c0,0.7-0.1,1.4-0.3,2.1c-0.2,0.5-0.6,1-1.2,0.9
		c-0.7-0.1-0.9-0.6-0.9-1.2c0.1-0.7,0.3-1.3,0.3-2c0.1-1.4,0.3-2.9,0.3-4.3c0-2.8-0.2-5.5-0.3-8.3c0-1.7,0-1.7-1.7-1.7
		c-2.1,0-4.2,0-6.3,0c-0.7,0-0.9,0.2-0.9,0.9c0,5.1,0,10.3,0,15.4c0,1.2,0.8,1.7,1.5,2.3c1.7,1.3,3.4,2.6,5.1,3.8
		c1.5,1.1,2.9,2.2,4.4,3.3c1.2,0.9,2.5,1,3.9,0.6c3.3-1.1,5.3,1.5,5.1,4c-0.1,1.3-1.4,2.7-2.7,3.1c-1.1,0.3-2.1,0.2-3.1-0.2
		c-1.5-0.6-2-1.9-2.3-3.3c-0.2-0.7-0.2-1.3-0.4-2c-0.1-0.3-0.3-0.6-0.6-0.7c-3.2-2.3-6.4-4.5-9.6-6.8c-1.3-0.9-2.7-1.8-3-3.4
		c-0.3-1.5-0.4-3-0.3-4.5c0.1-2.3,0.5-4.6,0.7-6.9c0.1-1.5-0.1-3-0.2-4.6c0-0.6-0.3-1-1.1-1c-1,0.1-2,0.1-2.9,0
		c-0.7,0-0.9,0.2-0.9,0.9c0,5.6,0,11.2,0,16.8c0,1.4-0.1,2.8-0.1,4.1c0,0.7,0.2,1.4,0.7,2c0.9,1,1.6,2.1,2.4,3.1
		c1.9,2.4,3.6,4.9,5.9,7c0.5,0.4,0.9,0.3,1.3,0.1c1.9-0.6,4.2,0.3,5,2.2c1.2,2.6-0.3,5.1-3.2,5.3c-2.6,0.2-4.2-1.7-4.4-4
		c-0.1-0.5,0.1-1.1,0.3-1.5c0.2-0.6,0.1-1-0.3-1.4c-2.1-2.4-4.2-4.8-6.3-7.2c-1-1.2-2.1-2.4-2.7-3.9c-0.2-0.7-0.4-1.4-0.4-2.1
		c0.1-3,0.3-6.1,0.4-9.1c0.1-2.2,0-4.4-0.1-6.6c0-1.6-0.1-3.2,0-4.8c0-0.7-0.2-0.9-0.9-0.9c-1.5,0-3,0-4.5,0c-0.9,0-1,0.1-1,1
		c0,3.9-0.1,7.8-0.1,11.7c0,2,0.1,4.1,0.3,6.1c0.2,2.8-0.9,4.9-3.1,6.6c-2.9,2.2-5.8,4.5-8.6,6.8c-1.2,0.9-2.4,1.9-2.9,3.4
		c-0.2,0.4-0.2,1-0.1,1.5c0.4,1.9,0,2.7-1.6,3.7c-1.4,0.8-3.4,0.7-4.6-0.2c-1.8-1.3-1.7-3.8-0.6-5.3c1.2-1.8,2.8-2.3,4.8-1.3
		c0.9,0.4,1.4,0.2,2-0.3c1.8-1.6,3.5-3.2,5.3-4.8c1.4-1.2,2.8-2.3,4.1-3.5c1.2-1.1,2.3-2.3,3.3-3.5c0.7-0.9,0.6-2.1,0.6-3.3
		c-0.1-3.1-0.3-6.2-0.3-9.3c0-2.7,0.2-5.5,0.3-8.2c0-1,0-1-1.1-1c-2.3,0-4.7,0-7,0c-0.8,0-0.9,0.3-0.9,1c0,4.4,0,8.7,0,13.1
		c0,1.2-0.1,2.4-0.3,3.6c-0.1,0.3-0.5,0.7-0.9,0.9c-2.6,1.7-5.1,3.3-7.7,4.9c-1.7,1.1-3.4,2.1-5.1,3.1c-0.5,0.3-0.6,0.6-0.4,1.1
		c0.7,2.7-1.6,5.1-4.1,5.1c-2.6,0-3.9-1.9-3.7-3.8c0.2-1.6,1.2-3.5,3.2-4c0.9-0.2,1.9,0,2.7,0.5c0.7,0.4,1.2,0.5,2,0
		c3.6-2.3,7.3-4.5,11-6.7c2-1.2,2.5-3,2.3-5.1c-0.4-3.8-0.5-7.5-0.4-11.3c0-0.6,0-1.2,0-1.8c0-0.2-0.3-0.5-0.5-0.5
		c-1.7,0-3.3,0.1-5,0.1c-0.5,0-0.6,0.3-0.7,0.8c0,2.6-0.1,5.2-0.2,7.8c0,2,0.1,3.9,0.6,5.8c0.2,0.6-0.2,1.3-0.7,1.4
		c-0.7,0.1-1.3-0.2-1.3-0.9c0-1.2,0.1-2.4,0.1-3.6c0-2.4,0-4.9,0-7.3c0-1.1,0-2.2,0-3.3c0-0.6-0.2-0.8-0.8-0.8
		c-1.7,0.1-3.3,0.1-5,0.1c-0.8,0-0.9,0.5-1.1,1.2c-0.6,3.1-0.2,6.3-0.3,9.5c0,1.7,0,3.3,0,5c0,1.4-0.3,1.7-1.7,1.7
		c-3.5,0-7,0-10.6,0c-0.3,0-0.5,0-0.9,0c0.5,5.5-0.3,10.9-0.5,16.3c-0.3,0-0.5,0-0.9,0c0-0.5,0-0.9,0-1.4c0-1.5,0.1-3.1,0.1-4.6
		c0.1-2.9,0.2-5.7,0.3-8.6c0-0.6,0.2-1.3,0.2-1.9c0-0.7,0.3-0.9,1-0.9c2.2,0.1,4.5,0.2,6.7,0.1c1.5,0,2.9-0.2,4.4-0.3
		c0.2,0,0.4-0.3,0.5-0.4s0-0.2,0-0.4c0.1-2.4,0.2-4.9,0.1-7.3c0-2.5-0.2-5-0.3-7.4c0-0.2-0.4-0.6-0.6-0.6c-1.3-0.1-2.6-0.1-3.8,0
		c-0.7,0-0.8,0.7-0.8,1.2c0,1.1,0.1,2.2,0.2,3.2c0.1,1.9,0.3,3.7,0.4,5.6c0,0.3-0.1,0.7-0.3,1c-0.2,0.5-0.7,0.7-1.2,0.6
		c-0.6-0.1-1-0.5-1-1.1c0-0.7,0.1-1.4,0.3-2.1c0.4-1.6,0.2-3.1,0.1-4.7C62,89.3,62,88.3,62,87.2c0-0.4-0.1-0.5-0.5-0.6
		c-2.8-0.1-5.6-0.2-8.4-0.3c-2.2,0-4.5,0.1-6.7,0.1c-1.1,0-1.1,0-1-1.1c0.2-1.6,0.2-3.3,0.3-4.9c0.5-6.6,2-12.9,4.9-18.8
		c7.9-16.4,20.8-26.5,38.6-30.2c2.6-0.5,5.2-0.6,7.8-1c0.2,0,0.3-0.1,0.5-0.1C99.2,30.4,100.9,30.4,102.5,30.4z M79.7,84.4
		c-0.1-10,8.9-19,17.9-19.6c5-0.4,9.6,0.9,13.6,3.9c5.2,3.9,7.8,9.3,8.1,15.8c1.3,0,2.5,0,3.7,0c0.1,0,0.3-0.1,0.4-0.3
		c0.4-0.6,0.7-1.3,1.1-1.9c1.4-2,2.9-4,4.3-6c1.1-1.4,1.8-1.6,3.5-0.9c0.2,0.1,0.3,0.1,0.5,0.2c3.4,1.4,6.9,2.8,10.1,4.8
		c1.5,0.9,2.7,2,2.6,4c1,0,1.8,0,2.8,0c0-0.2,0-0.3,0-0.5c-0.2-1.6-1-2.9-2.1-4c-2.7-2.6-5.9-4.4-9.3-5.9c-1.7-0.8-3.5-1.4-5.3-2
		c0.1-0.3,0.2-0.5,0.3-0.8c0.6-1.7,1.6-2.7,3.5-3c2.9-0.5,4.9-4.6,3.1-7.4c-1.1-1.7-1.8-3.5-2.3-5.5c-0.6-2.2-1.8-4-3.8-5
		c-2.5-1.3-5-1.3-7.6-0.5c-3.6,1.2-7.2,2.5-10.7,3.8c-0.5,0.2-0.7,0.1-0.9-0.4c-0.7-1.5-0.3-2.9,0.6-4.2c2-3.1-0.2-7.4-3.8-7.6
		c-1.5-0.1-3.1-0.5-4.5-1.1c-2.2-0.9-4.4-1.7-6.8-1.9c-2.2-0.2-3.2,0.3-3.8,2.4c-0.6,2-1,4.1-1.5,6.2c-0.2,0.8-0.4,1.6-1.1,2
		c-1.4,0.8-4.2,1.3-5.8-0.7c-1.4-1.6-2.9-3.1-4.3-4.6c-0.8-0.8-1.5-1-2.4-0.5c-1.5,0.8-3,1.7-4.4,2.6c-0.9,0.6-1.5,1.5-1.3,2.6
		c0.4,1.9,0.8,3.7,1.4,5.5c0.6,1.6,0.5,3-0.7,4.3s-2.5,2.3-4.5,1.6c-2-0.6-4-1.1-6.1-1.7c-1.7-0.4-2.4-0.2-3.3,1.3
		c-0.9,1.5-1.6,3-2.5,4.5c-0.4,0.8-0.3,1.4,0.2,2.1c0.2,0.3,0.5,0.6,0.8,0.9c1.3,1.2,2.5,2.4,3.8,3.6c1.3,1.2,1.6,2.7,1.2,4.3
		c-0.4,1.6-1.2,2.7-2.9,3.2c-1.8,0.5-3.6,1-5.3,1.6c-2.6,0.9-2.9,2.4-2.9,4.7C62.1,84.4,70.9,84.4,79.7,84.4z"/>
	<path class="st5" d="M129.2,52.1c1.6,0,2.7,0.7,3.3,2.2c0.1,0.3,0.2,0.7,0.3,1c0.4,1.6,0.4,1.6-1,2.2c-3.6,1.6-4.7,4-2.9,7.4
		c1,2,0.6,3.8,0.1,5.7c0,0.1-0.4,0.3-0.5,0.3c-2.7-0.4-5.5-0.9-8.2-1.4c-0.4-0.1-0.8-0.1-1.3-0.2c-2.2-0.4-3-1.2-3.2-3.5
		c-0.1-2.2-0.4-4.3-1-6.4c-0.5-1.8,0.2-3.2,1.9-3.8c3.8-1.3,7.7-2.8,11.7-3.5C128.7,52.1,129,52.1,129.2,52.1z"/>
	<path class="st5" d="M100.4,61.7c0-7,0-13.8,0-20.8c1.3,0.5,2.6,1,3.9,1.5c-0.3,0.8-0.6,1.4-0.8,2.1c-0.7,1.9-0.3,3.6,1.1,4.9
		c0.9,0.8,1.9,1.5,3,2.1s2,1.2,2.5,2.3c0.1,0.3,0.2,0.8,0,1c-0.5,0.6-1,1.3-1.6,1.7C105.9,58.3,103.2,60,100.4,61.7z"/>
	<path class="st5" d="M111.5,58.7c0.4,2.4,0.9,4.7,1.3,7.2c-2.7-1.2-5.3-2.3-8-3.4C107.1,61.1,109.3,59.9,111.5,58.7z"/>
	<path class="st5" d="M119.3,72.5c2.4,0.5,4.8,0.9,7.2,1.4c-1.4,2.2-2.8,4.3-4.2,6.5C121.3,77.8,120.3,75.2,119.3,72.5z"/>
</g>
</svg>
