<?xml version="1.0" encoding="utf-8"?>
<!-- Generator: Adobe Illustrator 22.0.1, SVG Export Plug-In . SVG Version: 6.00 Build 0)  -->
<svg version="1.1" id="Layer_1" xmlns="http://www.w3.org/2000/svg" xmlns:xlink="http://www.w3.org/1999/xlink" x="0px" y="0px"
	 viewBox="0 0 499.1 98" style="enable-background:new 0 0 499.1 98;" xml:space="preserve">
<style type="text/css">
	.st0{fill:none;stroke:url(#SVGID_1_);stroke-linecap:round;stroke-linejoin:round;}
	.st1{opacity:0.13;fill:url(#SVGID_2_);enable-background:new    ;}
	.st2{fill:#FFFFFF;}
	.st3{font-family:'Abel-Regular';}
	.st4{font-size:31.19px;}
	.st5{fill:#81DEF4;}
	.st6{font-size:24px;}
	.st7{fill:none;}
</style>
<g id="Layer_1-2">
	
		<linearGradient id="SVGID_1_" gradientUnits="userSpaceOnUse" x1="-1" y1="1" x2="498.1" y2="1" gradientTransform="matrix(1 0 0 1 0 48)">
		<stop  offset="0" style="stop-color:#80CFFF"/>
		<stop  offset="1" style="stop-color:#83FFDE"/>
	</linearGradient>
	<polyline class="st0" points="22.6,71.5 -0.5,48.4 -0.5,48.4 22.6,27 49.1,0.5 249.1,0.5 449.1,0.5 475.6,27 497.6,49 475.6,71 
		449.1,97.5 249.1,97.5 49.1,97.5 22.6,71.5 	"/>
	
		<linearGradient id="SVGID_2_" gradientUnits="userSpaceOnUse" x1="-0.5" y1="1" x2="497.6" y2="1" gradientTransform="matrix(1 0 0 1 0 48)">
		<stop  offset="0" style="stop-color:#80CFFF"/>
		<stop  offset="1" style="stop-color:#83FFDE"/>
	</linearGradient>
	<polyline class="st1" points="22.6,71.5 -0.5,48.4 -0.5,48.4 22.6,27 49.1,0.5 249.1,0.5 449.1,0.5 475.6,27 497.6,49 475.6,71 
		449.1,97.5 249.1,97.5 49.1,97.5 22.6,71.5 	"/>
	<text transform="matrix(1 0 0 1 123.1089 36.9204)" class="st2 st3 st4">11  to 13  April 2018</text>
	<text transform="matrix(1 0 0 1 140.3089 76.9204)" class="st5 st3 st6">Embarking from Infinity</text>
</g>
<rect x="380" y="74.5" class="st7" width="6.2" height="1.6"/>
</svg>
